<?xml version="1.0" encoding="UTF-8"?>
<svg xmlns="http://www.w3.org/2000/svg" xmlns:xlink="http://www.w3.org/1999/xlink" width="45px" height="45px" viewBox="0 0 45 45" version="1.1">
<defs>
<filter id="alpha" filterUnits="objectBoundingBox" x="0%" y="0%" width="100%" height="100%">
  <feColorMatrix type="matrix" in="SourceGraphic" values="0 0 0 0 1 0 0 0 0 1 0 0 0 0 1 0 0 0 1 0"/>
</filter>
<mask id="mask0">
  <g filter="url(#alpha)">
<rect x="0" y="0" width="45" height="45" style="fill:rgb(0%,0%,0%);fill-opacity:0.501961;stroke:none;"/>
  </g>
</mask>
<radialGradient id="radial0" gradientUnits="userSpaceOnUse" cx="0" cy="0" fx="0" fy="0" r="1" gradientTransform="matrix(13.094813,0,0,13.094813,16.306726,19.305938)">
<stop offset="0.682292" style="stop-color:rgb(98.823529%,80.784314%,21.960784%);stop-opacity:0;"/>
<stop offset="1" style="stop-color:rgb(98.823529%,80.784314%,21.960784%);stop-opacity:1;"/>
</radialGradient>
<clipPath id="clip1">
  <rect x="0" y="0" width="45" height="45"/>
</clipPath>
<g id="surface5" clip-path="url(#clip1)">
<path style=" stroke:none;fill-rule:nonzero;fill:url(#radial0);" d="M 25.5625 10.046875 C 20.449219 4.9375 12.15625 4.9375 7.046875 10.046875 C 1.9375 15.15625 1.9375 23.449219 7.046875 28.5625 C 12.15625 33.671875 20.449219 33.671875 25.5625 28.5625 C 30.683594 23.449219 30.683594 15.15625 25.5625 10.046875 Z M 25.5625 10.046875 "/>
</g>
<radialGradient id="radial1" gradientUnits="userSpaceOnUse" cx="0" cy="0" fx="0" fy="0" r="1" gradientTransform="matrix(12.794287,0,0,12.794287,13.820062,15.546357)">
<stop offset="0" style="stop-color:rgb(98.431373%,87.843137%,47.843137%);stop-opacity:1;"/>
<stop offset="1" style="stop-color:rgb(100%,61.568627%,0%);stop-opacity:1;"/>
</radialGradient>
<radialGradient id="radial2" gradientUnits="userSpaceOnUse" cx="0" cy="0" fx="0" fy="0" r="1" gradientTransform="matrix(2.018597,3.547532,-6.670834,3.7958,13.649231,14.85)">
<stop offset="0" style="stop-color:rgb(100%,100%,100%);stop-opacity:0.501961;"/>
<stop offset="1" style="stop-color:rgb(100%,100%,100%);stop-opacity:0;"/>
</radialGradient>
<radialGradient id="radial3" gradientUnits="userSpaceOnUse" cx="0" cy="0" fx="0" fy="0" r="1" gradientTransform="matrix(16.217625,0,0,16.217625,18.992813,26.964374)">
<stop offset="0" style="stop-color:rgb(100%,100%,100%);stop-opacity:1;"/>
<stop offset="0.3454" style="stop-color:rgb(98.823529%,99.215686%,99.215686%);stop-opacity:1;"/>
<stop offset="0.5956" style="stop-color:rgb(95.294118%,96.470588%,96.862745%);stop-opacity:1;"/>
<stop offset="0.815" style="stop-color:rgb(89.019608%,92.156863%,92.54902%);stop-opacity:1;"/>
<stop offset="1" style="stop-color:rgb(81.176471%,86.27451%,87.058824%);stop-opacity:1;"/>
</radialGradient>
<radialGradient id="radial4" gradientUnits="userSpaceOnUse" cx="0" cy="0" fx="0" fy="0" r="1" gradientTransform="matrix(13.016831,0,0,13.016831,22.446375,24.869063)">
<stop offset="0" style="stop-color:rgb(100%,100%,100%);stop-opacity:1;"/>
<stop offset="0.3454" style="stop-color:rgb(98.823529%,99.215686%,99.215686%);stop-opacity:1;"/>
<stop offset="0.5956" style="stop-color:rgb(95.294118%,96.470588%,96.862745%);stop-opacity:1;"/>
<stop offset="0.815" style="stop-color:rgb(89.019608%,92.156863%,92.54902%);stop-opacity:1;"/>
<stop offset="1" style="stop-color:rgb(81.176471%,86.27451%,87.058824%);stop-opacity:1;"/>
</radialGradient>
<radialGradient id="radial5" gradientUnits="userSpaceOnUse" cx="0" cy="0" fx="0" fy="0" r="1" gradientTransform="matrix(8.73165,0,0,8.73165,22.8345,30.689439)">
<stop offset="0" style="stop-color:rgb(100%,100%,100%);stop-opacity:1;"/>
<stop offset="0.3454" style="stop-color:rgb(98.823529%,99.215686%,99.215686%);stop-opacity:1;"/>
<stop offset="0.5956" style="stop-color:rgb(95.294118%,96.470588%,96.862745%);stop-opacity:1;"/>
<stop offset="0.815" style="stop-color:rgb(89.019608%,92.156863%,92.54902%);stop-opacity:1;"/>
<stop offset="1" style="stop-color:rgb(81.176471%,86.27451%,87.058824%);stop-opacity:1;"/>
</radialGradient>
<linearGradient id="linear0" gradientUnits="userSpaceOnUse" x1="11.8376" y1="14.0085" x2="11.8376" y2="20.842501" gradientTransform="matrix(1.875,0,0,1.875,0,0)">
<stop offset="0" style="stop-color:rgb(100%,100%,100%);stop-opacity:1;"/>
<stop offset="0.3454" style="stop-color:rgb(98.823529%,99.215686%,99.215686%);stop-opacity:1;"/>
<stop offset="0.5956" style="stop-color:rgb(95.294118%,96.470588%,96.862745%);stop-opacity:1;"/>
<stop offset="0.815" style="stop-color:rgb(89.019608%,92.156863%,92.54902%);stop-opacity:1;"/>
<stop offset="1" style="stop-color:rgb(81.176471%,86.27451%,87.058824%);stop-opacity:1;"/>
</linearGradient>
<radialGradient id="radial6" gradientUnits="userSpaceOnUse" cx="0" cy="0" fx="0" fy="0" r="1" gradientTransform="matrix(17.190412,0,0,17.190412,30.361876,22.541063)">
<stop offset="0" style="stop-color:rgb(100%,100%,100%);stop-opacity:1;"/>
<stop offset="0.345" style="stop-color:rgb(98.823529%,99.215686%,99.215686%);stop-opacity:1;"/>
<stop offset="0.5948" style="stop-color:rgb(95.294118%,96.470588%,96.862745%);stop-opacity:1;"/>
<stop offset="0.8139" style="stop-color:rgb(89.019608%,92.156863%,92.54902%);stop-opacity:1;"/>
<stop offset="0.9987" style="stop-color:rgb(81.176471%,86.27451%,87.058824%);stop-opacity:1;"/>
</radialGradient>
<radialGradient id="radial7" gradientUnits="userSpaceOnUse" cx="0" cy="0" fx="0" fy="0" r="1" gradientTransform="matrix(4.468456,15.392762,-15.391285,4.468027,26.395125,24.111187)">
<stop offset="0" style="stop-color:rgb(100%,100%,100%);stop-opacity:1;"/>
<stop offset="0.3454" style="stop-color:rgb(98.823529%,99.215686%,99.215686%);stop-opacity:1;"/>
<stop offset="0.5956" style="stop-color:rgb(95.294118%,96.470588%,96.862745%);stop-opacity:1;"/>
<stop offset="0.815" style="stop-color:rgb(89.019608%,92.156863%,92.54902%);stop-opacity:1;"/>
<stop offset="1" style="stop-color:rgb(81.176471%,86.27451%,87.058824%);stop-opacity:1;"/>
</radialGradient>
<radialGradient id="radial8" gradientUnits="userSpaceOnUse" cx="0" cy="0" fx="0" fy="0" r="1" gradientTransform="matrix(-8.464344,15.160688,-15.160688,-8.464344,14.997638,17.567906)">
<stop offset="0" style="stop-color:rgb(81.176471%,86.27451%,87.058824%);stop-opacity:0;"/>
<stop offset="0.8869" style="stop-color:rgb(81.176471%,86.27451%,87.058824%);stop-opacity:0.886275;"/>
<stop offset="1" style="stop-color:rgb(81.176471%,86.27451%,87.058824%);stop-opacity:1;"/>
</radialGradient>
<radialGradient id="radial9" gradientUnits="userSpaceOnUse" cx="0" cy="0" fx="0" fy="0" r="1" gradientTransform="matrix(13.501519,0,0,13.501519,15.927413,25.606501)">
<stop offset="0" style="stop-color:rgb(100%,100%,100%);stop-opacity:1;"/>
<stop offset="0.3454" style="stop-color:rgb(98.823529%,99.215686%,99.215686%);stop-opacity:1;"/>
<stop offset="0.5956" style="stop-color:rgb(95.294118%,96.470588%,96.862745%);stop-opacity:1;"/>
<stop offset="0.815" style="stop-color:rgb(89.019608%,92.156863%,92.54902%);stop-opacity:1;"/>
<stop offset="1" style="stop-color:rgb(81.176471%,86.27451%,87.058824%);stop-opacity:1;"/>
</radialGradient>
</defs>
<g id="surface1">
<use xlink:href="#surface5" mask="url(#mask0)"/>
<path style=" stroke:none;fill-rule:nonzero;fill:url(#radial1);" d="M 16.304688 28.648438 C 21.464844 28.648438 25.648438 24.464844 25.648438 19.304688 C 25.648438 14.144531 21.464844 9.960938 16.304688 9.960938 C 11.144531 9.960938 6.960938 14.144531 6.960938 19.304688 C 6.960938 24.464844 11.144531 28.648438 16.304688 28.648438 Z M 16.304688 28.648438 "/>
<path style=" stroke:none;fill-rule:nonzero;fill:url(#radial2);" d="M 16.304688 28.648438 C 21.464844 28.648438 25.648438 24.464844 25.648438 19.304688 C 25.648438 14.144531 21.464844 9.960938 16.304688 9.960938 C 11.144531 9.960938 6.960938 14.144531 6.960938 19.304688 C 6.960938 24.464844 11.144531 28.648438 16.304688 28.648438 Z M 16.304688 28.648438 "/>
<path style=" stroke:none;fill-rule:nonzero;fill:url(#radial3);" d="M 17.878906 31.527344 C 21.742188 31.527344 24.875 28.398438 24.875 24.53125 C 24.875 20.667969 21.742188 17.535156 17.878906 17.535156 C 14.015625 17.535156 10.882812 20.667969 10.882812 24.53125 C 10.882812 28.398438 14.015625 31.527344 17.878906 31.527344 Z M 17.878906 31.527344 "/>
<path style=" stroke:none;fill-rule:nonzero;fill:url(#radial4);" d="M 27.136719 30.179688 C 31.414062 30.179688 34.882812 26.710938 34.882812 22.433594 C 34.882812 18.152344 31.414062 14.6875 27.136719 14.6875 C 22.859375 14.6875 19.390625 18.152344 19.390625 22.433594 C 19.390625 26.710938 22.859375 30.179688 27.136719 30.179688 Z M 27.136719 30.179688 "/>
<path style=" stroke:none;fill-rule:nonzero;fill:url(#radial5);" d="M 23.835938 36.660156 C 27.417969 36.660156 30.320312 33.757812 30.320312 30.179688 C 30.320312 26.597656 27.417969 23.695312 23.835938 23.695312 C 20.257812 23.695312 17.355469 26.597656 17.355469 30.179688 C 17.355469 33.757812 20.257812 36.660156 23.835938 36.660156 Z M 23.835938 36.660156 "/>
<path style=" stroke:none;fill-rule:nonzero;fill:url(#linear0);" d="M 11.300781 38.707031 L 33.09375 38.707031 L 33.09375 29.289062 L 12.542969 29.289062 Z M 11.300781 38.707031 "/>
<path style=" stroke:none;fill-rule:nonzero;fill:url(#radial6);" d="M 33.09375 38.707031 C 37.894531 38.707031 41.78125 34.816406 41.78125 30.019531 C 41.78125 25.21875 37.894531 21.328125 33.09375 21.328125 C 28.292969 21.328125 24.402344 25.21875 24.402344 30.019531 C 24.402344 34.816406 28.292969 38.707031 33.09375 38.707031 Z M 33.09375 38.707031 "/>
<path style=" stroke:none;fill-rule:nonzero;fill:url(#radial7);" d="M 35.515625 38.363281 C 30.90625 39.703125 26.085938 37.046875 24.746094 32.4375 C 23.40625 27.832031 26.066406 23.011719 30.671875 21.671875 C 35.277344 20.332031 40.101562 22.988281 41.441406 27.597656 C 42.777344 32.203125 40.121094 37.023438 35.515625 38.363281 Z M 35.515625 38.363281 "/>
<path style=" stroke:none;fill-rule:nonzero;fill:url(#radial8);" d="M 19.144531 17.644531 C 18.738281 17.566406 18.308594 17.523438 17.878906 17.523438 C 14.011719 17.523438 10.882812 20.664062 10.882812 24.519531 C 10.882812 26.042969 11.375 27.457031 12.203125 28.613281 L 14.847656 26.695312 C 13.292969 23.160156 14.109375 18.5625 19.144531 17.644531 Z M 19.144531 17.644531 "/>
<path style=" stroke:none;fill-rule:nonzero;fill:url(#radial9);" d="M 11.300781 38.707031 C 15.164062 38.707031 18.296875 35.574219 18.296875 31.710938 C 18.296875 27.847656 15.164062 24.714844 11.300781 24.714844 C 7.4375 24.714844 4.304688 27.847656 4.304688 31.710938 C 4.304688 35.574219 7.4375 38.707031 11.300781 38.707031 Z M 11.300781 38.707031 "/>
</g>
</svg>
