<?xml version="1.0" encoding="UTF-8"?>
<svg xmlns="http://www.w3.org/2000/svg" xmlns:xlink="http://www.w3.org/1999/xlink" width="100px" height="100px" viewBox="0 0 100 100" version="1.1">
<defs>
<filter id="alpha" filterUnits="objectBoundingBox" x="0%" y="0%" width="100%" height="100%">
  <feColorMatrix type="matrix" in="SourceGraphic" values="0 0 0 0 1 0 0 0 0 1 0 0 0 0 1 0 0 0 1 0"/>
</filter>
<mask id="mask0">
  <g filter="url(#alpha)">
<rect x="0" y="0" width="100" height="100" style="fill:rgb(0%,0%,0%);fill-opacity:0.501961;stroke:none;"/>
  </g>
</mask>
<radialGradient id="radial0" gradientUnits="userSpaceOnUse" cx="0" cy="0" fx="0" fy="0" r="1" gradientTransform="matrix(29.099584,0,0,29.099584,36.237168,42.902084)">
<stop offset="0.682292" style="stop-color:rgb(98.823529%,80.784314%,21.960784%);stop-opacity:0;"/>
<stop offset="1" style="stop-color:rgb(98.823529%,80.784314%,21.960784%);stop-opacity:1;"/>
</radialGradient>
<clipPath id="clip1">
  <rect x="0" y="0" width="100" height="100"/>
</clipPath>
<g id="surface5" clip-path="url(#clip1)">
<path style=" stroke:none;fill-rule:nonzero;fill:url(#radial0);" d="M 56.804688 22.324219 C 45.445312 10.96875 27.019531 10.96875 15.660156 22.324219 C 4.304688 33.683594 4.304688 52.113281 15.660156 63.46875 C 27.019531 74.828125 45.445312 74.828125 56.804688 63.46875 C 68.183594 52.113281 68.183594 33.683594 56.804688 22.324219 Z M 56.804688 22.324219 "/>
</g>
<radialGradient id="radial1" gradientUnits="userSpaceOnUse" cx="0" cy="0" fx="0" fy="0" r="1" gradientTransform="matrix(28.431749,0,0,28.431749,30.71125,34.54746)">
<stop offset="0" style="stop-color:rgb(98.431373%,87.843137%,47.843137%);stop-opacity:1;"/>
<stop offset="1" style="stop-color:rgb(100%,61.568627%,0%);stop-opacity:1;"/>
</radialGradient>
<radialGradient id="radial2" gradientUnits="userSpaceOnUse" cx="0" cy="0" fx="0" fy="0" r="1" gradientTransform="matrix(4.48577,7.883404,-14.824075,8.435112,30.331626,33)">
<stop offset="0" style="stop-color:rgb(100%,100%,100%);stop-opacity:0.501961;"/>
<stop offset="1" style="stop-color:rgb(100%,100%,100%);stop-opacity:0;"/>
</radialGradient>
<radialGradient id="radial3" gradientUnits="userSpaceOnUse" cx="0" cy="0" fx="0" fy="0" r="1" gradientTransform="matrix(36.039166,0,0,36.039166,42.206252,59.920832)">
<stop offset="0" style="stop-color:rgb(100%,100%,100%);stop-opacity:1;"/>
<stop offset="0.3454" style="stop-color:rgb(98.823529%,99.215686%,99.215686%);stop-opacity:1;"/>
<stop offset="0.5956" style="stop-color:rgb(95.294118%,96.470588%,96.862745%);stop-opacity:1;"/>
<stop offset="0.815" style="stop-color:rgb(89.019608%,92.156863%,92.54902%);stop-opacity:1;"/>
<stop offset="1" style="stop-color:rgb(81.176471%,86.27451%,87.058824%);stop-opacity:1;"/>
</radialGradient>
<radialGradient id="radial4" gradientUnits="userSpaceOnUse" cx="0" cy="0" fx="0" fy="0" r="1" gradientTransform="matrix(28.926291,0,0,28.926291,49.880834,55.264584)">
<stop offset="0" style="stop-color:rgb(100%,100%,100%);stop-opacity:1;"/>
<stop offset="0.3454" style="stop-color:rgb(98.823529%,99.215686%,99.215686%);stop-opacity:1;"/>
<stop offset="0.5956" style="stop-color:rgb(95.294118%,96.470588%,96.862745%);stop-opacity:1;"/>
<stop offset="0.815" style="stop-color:rgb(89.019608%,92.156863%,92.54902%);stop-opacity:1;"/>
<stop offset="1" style="stop-color:rgb(81.176471%,86.27451%,87.058824%);stop-opacity:1;"/>
</radialGradient>
<radialGradient id="radial5" gradientUnits="userSpaceOnUse" cx="0" cy="0" fx="0" fy="0" r="1" gradientTransform="matrix(19.403666,0,0,19.403666,50.743333,68.198752)">
<stop offset="0" style="stop-color:rgb(100%,100%,100%);stop-opacity:1;"/>
<stop offset="0.3454" style="stop-color:rgb(98.823529%,99.215686%,99.215686%);stop-opacity:1;"/>
<stop offset="0.5956" style="stop-color:rgb(95.294118%,96.470588%,96.862745%);stop-opacity:1;"/>
<stop offset="0.815" style="stop-color:rgb(89.019608%,92.156863%,92.54902%);stop-opacity:1;"/>
<stop offset="1" style="stop-color:rgb(81.176471%,86.27451%,87.058824%);stop-opacity:1;"/>
</radialGradient>
<linearGradient id="linear0" gradientUnits="userSpaceOnUse" x1="11.8376" y1="14.0085" x2="11.8376" y2="20.842501" gradientTransform="matrix(4.166667,0,0,4.166667,0,0)">
<stop offset="0" style="stop-color:rgb(100%,100%,100%);stop-opacity:1;"/>
<stop offset="0.3454" style="stop-color:rgb(98.823529%,99.215686%,99.215686%);stop-opacity:1;"/>
<stop offset="0.5956" style="stop-color:rgb(95.294118%,96.470588%,96.862745%);stop-opacity:1;"/>
<stop offset="0.815" style="stop-color:rgb(89.019608%,92.156863%,92.54902%);stop-opacity:1;"/>
<stop offset="1" style="stop-color:rgb(81.176471%,86.27451%,87.058824%);stop-opacity:1;"/>
</linearGradient>
<radialGradient id="radial6" gradientUnits="userSpaceOnUse" cx="0" cy="0" fx="0" fy="0" r="1" gradientTransform="matrix(38.200915,0,0,38.200915,67.470837,50.091251)">
<stop offset="0" style="stop-color:rgb(100%,100%,100%);stop-opacity:1;"/>
<stop offset="0.345" style="stop-color:rgb(98.823529%,99.215686%,99.215686%);stop-opacity:1;"/>
<stop offset="0.5948" style="stop-color:rgb(95.294118%,96.470588%,96.862745%);stop-opacity:1;"/>
<stop offset="0.8139" style="stop-color:rgb(89.019608%,92.156863%,92.54902%);stop-opacity:1;"/>
<stop offset="0.9987" style="stop-color:rgb(81.176471%,86.27451%,87.058824%);stop-opacity:1;"/>
</radialGradient>
<radialGradient id="radial7" gradientUnits="userSpaceOnUse" cx="0" cy="0" fx="0" fy="0" r="1" gradientTransform="matrix(9.929902,34.206138,-34.202856,9.92895,58.655834,53.580415)">
<stop offset="0" style="stop-color:rgb(100%,100%,100%);stop-opacity:1;"/>
<stop offset="0.3454" style="stop-color:rgb(98.823529%,99.215686%,99.215686%);stop-opacity:1;"/>
<stop offset="0.5956" style="stop-color:rgb(95.294118%,96.470588%,96.862745%);stop-opacity:1;"/>
<stop offset="0.815" style="stop-color:rgb(89.019608%,92.156863%,92.54902%);stop-opacity:1;"/>
<stop offset="1" style="stop-color:rgb(81.176471%,86.27451%,87.058824%);stop-opacity:1;"/>
</radialGradient>
<radialGradient id="radial8" gradientUnits="userSpaceOnUse" cx="0" cy="0" fx="0" fy="0" r="1" gradientTransform="matrix(-18.809653,33.690417,-33.690417,-18.809653,33.328084,39.039791)">
<stop offset="0" style="stop-color:rgb(81.176471%,86.27451%,87.058824%);stop-opacity:0;"/>
<stop offset="0.8869" style="stop-color:rgb(81.176471%,86.27451%,87.058824%);stop-opacity:0.886275;"/>
<stop offset="1" style="stop-color:rgb(81.176471%,86.27451%,87.058824%);stop-opacity:1;"/>
</radialGradient>
<radialGradient id="radial9" gradientUnits="userSpaceOnUse" cx="0" cy="0" fx="0" fy="0" r="1" gradientTransform="matrix(30.003375,0,0,30.003375,35.394251,56.903334)">
<stop offset="0" style="stop-color:rgb(100%,100%,100%);stop-opacity:1;"/>
<stop offset="0.3454" style="stop-color:rgb(98.823529%,99.215686%,99.215686%);stop-opacity:1;"/>
<stop offset="0.5956" style="stop-color:rgb(95.294118%,96.470588%,96.862745%);stop-opacity:1;"/>
<stop offset="0.815" style="stop-color:rgb(89.019608%,92.156863%,92.54902%);stop-opacity:1;"/>
<stop offset="1" style="stop-color:rgb(81.176471%,86.27451%,87.058824%);stop-opacity:1;"/>
</radialGradient>
</defs>
<g id="surface1">
<use xlink:href="#surface5" mask="url(#mask0)"/>
<path style=" stroke:none;fill-rule:nonzero;fill:url(#radial1);" d="M 36.230469 63.660156 C 47.699219 63.660156 56.996094 54.363281 56.996094 42.898438 C 56.996094 31.429688 47.699219 22.136719 36.230469 22.136719 C 24.765625 22.136719 15.46875 31.429688 15.46875 42.898438 C 15.46875 54.363281 24.765625 63.660156 36.230469 63.660156 Z M 36.230469 63.660156 "/>
<path style=" stroke:none;fill-rule:nonzero;fill:url(#radial2);" d="M 36.230469 63.660156 C 47.699219 63.660156 56.996094 54.363281 56.996094 42.898438 C 56.996094 31.429688 47.699219 22.136719 36.230469 22.136719 C 24.765625 22.136719 15.46875 31.429688 15.46875 42.898438 C 15.46875 54.363281 24.765625 63.660156 36.230469 63.660156 Z M 36.230469 63.660156 "/>
<path style=" stroke:none;fill-rule:nonzero;fill:url(#radial3);" d="M 39.734375 70.0625 C 48.320312 70.0625 55.28125 63.101562 55.28125 54.515625 C 55.28125 45.929688 48.320312 38.96875 39.734375 38.96875 C 31.144531 38.96875 24.183594 45.929688 24.183594 54.515625 C 24.183594 63.101562 31.144531 70.0625 39.734375 70.0625 Z M 39.734375 70.0625 "/>
<path style=" stroke:none;fill-rule:nonzero;fill:url(#radial4);" d="M 60.304688 67.0625 C 69.8125 67.0625 77.519531 59.355469 77.519531 49.847656 C 77.519531 40.34375 69.8125 32.636719 60.304688 32.636719 C 50.796875 32.636719 43.089844 40.34375 43.089844 49.847656 C 43.089844 59.355469 50.796875 67.0625 60.304688 67.0625 Z M 60.304688 67.0625 "/>
<path style=" stroke:none;fill-rule:nonzero;fill:url(#radial5);" d="M 52.972656 81.46875 C 60.925781 81.46875 67.375 75.019531 67.375 67.0625 C 67.375 59.109375 60.925781 52.660156 52.972656 52.660156 C 45.015625 52.660156 38.566406 59.109375 38.566406 67.0625 C 38.566406 75.019531 45.015625 81.46875 52.972656 81.46875 Z M 52.972656 81.46875 "/>
<path style=" stroke:none;fill-rule:nonzero;fill:url(#linear0);" d="M 25.113281 86.015625 L 73.542969 86.015625 L 73.542969 65.089844 L 27.875 65.089844 Z M 25.113281 86.015625 "/>
<path style=" stroke:none;fill-rule:nonzero;fill:url(#radial6);" d="M 73.542969 86.015625 C 84.207031 86.015625 92.851562 77.371094 92.851562 66.707031 C 92.851562 56.042969 84.207031 47.398438 73.542969 47.398438 C 62.878906 47.398438 54.230469 56.042969 54.230469 66.707031 C 54.230469 77.371094 62.878906 86.015625 73.542969 86.015625 Z M 73.542969 86.015625 "/>
<path style=" stroke:none;fill-rule:nonzero;fill:url(#radial7);" d="M 78.921875 85.253906 C 68.683594 88.230469 57.96875 82.324219 54.992188 72.085938 C 52.015625 61.847656 57.921875 51.136719 68.160156 48.160156 C 78.398438 45.183594 89.113281 51.085938 92.089844 61.324219 C 95.066406 71.5625 89.160156 82.277344 78.921875 85.253906 Z M 78.921875 85.253906 "/>
<path style=" stroke:none;fill-rule:nonzero;fill:url(#radial8);" d="M 42.542969 39.207031 C 41.636719 39.039062 40.683594 38.945312 39.734375 38.945312 C 31.136719 38.945312 24.183594 45.921875 24.183594 54.492188 C 24.183594 57.871094 25.28125 61.015625 27.113281 63.585938 L 32.996094 59.324219 C 29.542969 51.46875 31.351562 41.253906 42.542969 39.207031 Z M 42.542969 39.207031 "/>
<path style=" stroke:none;fill-rule:nonzero;fill:url(#radial9);" d="M 25.113281 86.015625 C 33.699219 86.015625 40.660156 79.054688 40.660156 70.46875 C 40.660156 61.882812 33.699219 54.921875 25.113281 54.921875 C 16.527344 54.921875 9.566406 61.882812 9.566406 70.46875 C 9.566406 79.054688 16.527344 86.015625 25.113281 86.015625 Z M 25.113281 86.015625 "/>
</g>
</svg>
